<svg width="1200" height="1500" viewBox="0 0 1200 1500" fill="none" xmlns="http://www.w3.org/2000/svg">
  <rect width="1200" height="1500" fill="#17312A"/>
  <rect width="1200" height="1500" fill="url(#bg)"/>
  <circle cx="214" cy="216" r="188" fill="#F5C877" fill-opacity="0.32"/>
  <circle cx="972" cy="1190" r="286" fill="#C95A53" fill-opacity="0.2"/>
  <rect x="72" y="72" width="1056" height="1356" rx="48" fill="url(#frame)" stroke="rgba(255,248,240,0.24)"/>
  <circle cx="450" cy="434" r="94" fill="#FFD5BA"/>
  <rect x="355" y="522" width="190" height="314" rx="95" fill="url(#girlDress)"/>
  <path d="M321 612C366 562 426 536 450 536C474 536 534 562 579 612L642 776C654 807 631 840 597 840H303C269 840 246 807 258 776L321 612Z" fill="url(#skirt)"/>
  <circle cx="774" cy="456" r="88" fill="#FFD5BA"/>
  <rect x="694" y="536" width="160" height="232" rx="80" fill="#F5E9D8"/>
  <rect x="660" y="746" width="228" height="164" rx="72" fill="url(#boyWear)"/>
  <path d="M408 362C431 322 474 298 520 306" stroke="#4E1E1A" stroke-width="18" stroke-linecap="round"/>
  <path d="M724 392C747 352 787 328 830 334" stroke="#4E1E1A" stroke-width="18" stroke-linecap="round"/>
  <g opacity="0.92">
    <rect x="124" y="118" width="216" height="52" rx="26" fill="#FFF4EA"/>
    <text x="154" y="151" fill="#2B5A4B" font-family="Arial, sans-serif" font-size="24" font-weight="700" letter-spacing="2">KIDS FESTIVE</text>
  </g>
  <text x="120" y="1266" fill="#FFF8F0" font-family="Georgia, serif" font-size="88" font-weight="700">Kids Festive Looks</text>
  <text x="120" y="1332" fill="#E5F0EA" font-family="Arial, sans-serif" font-size="34">Bright, cheerful sample artwork for girls and boys festive style sections.</text>
  <defs>
    <linearGradient id="bg" x1="92" y1="63" x2="1052" y2="1420" gradientUnits="userSpaceOnUse">
      <stop stop-color="#29584D"/>
      <stop offset="0.5" stop-color="#183730"/>
      <stop offset="1" stop-color="#7F4639"/>
    </linearGradient>
    <linearGradient id="frame" x1="124" y1="120" x2="1021" y2="1372" gradientUnits="userSpaceOnUse">
      <stop stop-color="#6EB59A" stop-opacity="0.14"/>
      <stop offset="1" stop-color="#F5C877" stop-opacity="0.1"/>
    </linearGradient>
    <linearGradient id="girlDress" x1="355" y1="522" x2="545" y2="836" gradientUnits="userSpaceOnUse">
      <stop stop-color="#FFE1CF"/>
      <stop offset="1" stop-color="#F2A364"/>
    </linearGradient>
    <linearGradient id="skirt" x1="278" y1="562" x2="618" y2="840" gradientUnits="userSpaceOnUse">
      <stop stop-color="#D04B5A"/>
      <stop offset="1" stop-color="#F2A95C"/>
    </linearGradient>
    <linearGradient id="boyWear" x1="660" y1="746" x2="888" y2="910" gradientUnits="userSpaceOnUse">
      <stop stop-color="#6DB08E"/>
      <stop offset="1" stop-color="#2B5A4B"/>
    </linearGradient>
  </defs>
</svg>
