<svg width="1200" height="1500" viewBox="0 0 1200 1500" fill="none" xmlns="http://www.w3.org/2000/svg">
  <rect width="1200" height="1500" fill="url(#bg)"/>
  <circle cx="994" cy="200" r="224" fill="#C5E0E0" fill-opacity="0.2"/>
  <circle cx="204" cy="1200" r="280" fill="#7F82D4" fill-opacity="0.16"/>
  <rect x="78" y="78" width="1044" height="1344" rx="52" fill="url(#panel)" stroke="rgba(255,248,240,0.22)"/>
  <path d="M504 290H696L744 1022C751 1094 694 1156 622 1156H578C506 1156 449 1094 456 1022L504 290Z" fill="url(#legs)"/>
  <path d="M520 290H680L708 1080H616L602 654L588 1080H492L520 290Z" fill="#D5D8F0" fill-opacity="0.88"/>
  <rect x="480" y="246" width="240" height="84" rx="42" fill="#F4E8DB"/>
  <path d="M530 762H672" stroke="#5B67C4" stroke-width="20" stroke-linecap="round"/>
  <path d="M522 854H680" stroke="#8FBED8" stroke-width="20" stroke-linecap="round" stroke-dasharray="1 34"/>
  <rect x="124" y="120" width="238" height="50" rx="25" fill="#FFF4EA"/>
  <text x="154" y="151" fill="#4F63A5" font-family="Arial, sans-serif" font-size="22" font-weight="700" letter-spacing="2">LEGGINGS FIT</text>
  <text x="118" y="1264" fill="#FFF8F0" font-family="Georgia, serif" font-size="90" font-weight="700">Stretch Fit Leggings</text>
  <text x="118" y="1330" fill="#E8EEF9" font-family="Arial, sans-serif" font-size="34">Modern essentials artwork with a clean premium look for everyday basics.</text>
  <defs>
    <linearGradient id="bg" x1="94" y1="56" x2="1042" y2="1426" gradientUnits="userSpaceOnUse">
      <stop stop-color="#47508F"/>
      <stop offset="0.48" stop-color="#232B56"/>
      <stop offset="1" stop-color="#6A8FAF"/>
    </linearGradient>
    <linearGradient id="panel" x1="112" y1="110" x2="1028" y2="1400" gradientUnits="userSpaceOnUse">
      <stop stop-color="#FFFFFF" stop-opacity="0.08"/>
      <stop offset="1" stop-color="#FFFFFF" stop-opacity="0.02"/>
    </linearGradient>
    <linearGradient id="legs" x1="462" y1="290" x2="734" y2="1156" gradientUnits="userSpaceOnUse">
      <stop stop-color="#AFC4E4"/>
      <stop offset="0.5" stop-color="#7286C9"/>
      <stop offset="1" stop-color="#48529B"/>
    </linearGradient>
  </defs>
</svg>
